<svg width="16" height="16" viewBox="0 0 16 16" fill="none" xmlns="http://www.w3.org/2000/svg">
<g clip-path="url(#clip0_4_1180)">
<path d="M14.6667 7.99998C14.6667 4.31808 11.6819 1.33331 8.00004 1.33331C4.31814 1.33331 1.33337 4.31808 1.33337 7.99998C1.33337 11.6819 4.31814 14.6666 8.00004 14.6666" stroke="#6B7B8C" stroke-width="1.5" stroke-linecap="round" stroke-linejoin="round"/>
<path d="M8.66663 1.36621C8.66663 1.36621 10.6666 3.99996 10.6666 7.99996" stroke="#6B7B8C" stroke-width="1.5" stroke-linecap="round" stroke-linejoin="round"/>
<path d="M7.33337 14.6337C7.33337 14.6337 5.33337 12 5.33337 7.99996C5.33337 3.99996 7.33337 1.36621 7.33337 1.36621" stroke="#6B7B8C" stroke-width="1.5" stroke-linecap="round" stroke-linejoin="round"/>
<path d="M1.75305 10.3333H7.99998" stroke="#6B7B8C" stroke-width="1.5" stroke-linecap="round" stroke-linejoin="round"/>
<path d="M1.75305 5.66669H14.2469" stroke="#6B7B8C" stroke-width="1.5" stroke-linecap="round" stroke-linejoin="round"/>
<path fill-rule="evenodd" clip-rule="evenodd" d="M14.5859 11.9449C14.9151 12.1474 14.8949 12.6403 14.5558 12.6787L12.8448 12.8727L12.0773 14.4142C11.9252 14.7197 11.4552 14.5701 11.3775 14.1915L10.5406 10.1142C10.4749 9.79417 10.7625 9.59281 11.0407 9.76397L14.5859 11.9449Z" stroke="#6B7B8C" stroke-width="1.5"/>
</g>
<defs>
<clipPath id="clip0_4_1180">
<rect width="16" height="16" fill="white"/>
</clipPath>
</defs>
</svg>
